<?xml version="1.0" standalone="no"?>
<!DOCTYPE svg PUBLIC "-//W3C//DTD SVG 20010904//EN"
 "http://www.w3.org/TR/2001/REC-SVG-20010904/DTD/svg10.dtd">
<svg version="1.0" xmlns="http://www.w3.org/2000/svg"
 width="1428.000000pt" height="2000.000000pt" viewBox="0 0 1428.000000 2000.000000"
 preserveAspectRatio="xMidYMid meet">

<g transform="translate(0.000000,2000.000000) scale(0.100000,-0.100000)"
fill="#82f7ff" stroke="none">
<path d="M0 10005 l0 -9995 7140 0 7140 0 0 9995 0 9995 -7140 0 -7140 0 0
-9995z m4962 8548 c15 -14 18 -32 18 -134 0 -110 -1 -119 -22 -133 -19 -14
-62 -16 -273 -16 -211 0 -254 2 -273 16 -21 14 -22 22 -22 139 0 108 2 125 18
134 10 6 119 11 276 11 228 0 262 -2 278 -17z m4652 1 c22 -21 23 -245 2 -263
-10 -8 -583 -11 -2182 -11 -2026 0 -2170 1 -2181 17 -20 26 -17 222 3 251 l15
22 2164 0 c1954 0 2165 -2 2179 -16z m2351 0 c13 -13 15 -37 13 -137 -3 -118
-4 -122 -28 -134 -37 -19 -2063 -19 -2100 0 -24 12 -25 16 -28 131 -2 100 0
122 14 137 16 18 55 19 1065 19 947 0 1049 -2 1064 -16z m-5441 -440 c13 -12
16 -39 16 -125 0 -61 -5 -119 -10 -130 -11 -19 -46 -19 -2185 -19 -2139 0
-2174 0 -2185 19 -5 11 -10 69 -10 130 0 86 3 113 16 125 14 14 225 16 2179
16 1954 0 2165 -2 2179 -16z m-2929 -429 c23 -22 25 -31 25 -127 0 -78 -4
-109 -16 -126 l-15 -22 -714 0 c-635 0 -715 2 -729 16 -13 12 -16 39 -16 130
0 101 2 116 20 134 20 20 33 20 720 20 l701 0 24 -25z m703 3 c8 -8 12 -51 12
-129 0 -94 -3 -121 -16 -133 -13 -14 -50 -16 -249 -16 l-235 0 -16 25 c-22 33
-17 241 6 255 23 15 483 13 498 -2z m616 -954 c13 -12 16 -39 16 -133 0 -78
-4 -121 -12 -129 -17 -17 -1879 -17 -1896 0 -17 17 -17 249 0 266 9 9 233 12
944 12 834 0 934 -2 948 -16z m850 -500 c13 -12 16 -39 16 -133 0 -78 -4 -121
-12 -129 -17 -17 -2269 -17 -2286 0 -8 8 -12 51 -12 127 0 92 3 118 17 133 15
17 64 18 1139 18 1007 0 1124 -2 1138 -16z m760 -6 c12 -17 16 -49 16 -130 0
-158 21 -148 -300 -148 -321 0 -300 -10 -300 148 0 164 -24 152 300 152 267 0
269 0 284 -22z m-1346 -480 c8 -8 12 -52 12 -133 0 -81 -4 -125 -12 -133 -17
-17 -1349 -17 -1366 0 -17 17 -17 249 0 266 17 17 1349 17 1366 0z m-876 -485
c15 -14 18 -32 18 -131 0 -93 -3 -119 -17 -134 -15 -17 -48 -18 -646 -18 -573
0 -632 2 -649 17 -15 14 -18 32 -18 134 0 110 1 119 22 133 20 14 98 16 647
16 567 0 626 -2 643 -17z m470 -430 c26 -23 27 -227 1 -255 -15 -17 -69 -18
-1308 -18 -991 0 -1294 3 -1303 12 -17 17 -17 249 0 266 9 9 312 12 1302 12
1186 0 1291 -1 1308 -17z m2918 -2 c13 -25 13 -227 0 -252 -11 -19 -36 -19
-1368 -19 -1043 0 -1361 3 -1370 12 -17 17 -17 249 0 266 9 9 327 12 1370 12
1332 0 1357 0 1368 -19z m2750 0 c5 -11 10 -68 10 -126 0 -58 -5 -115 -10
-126 -11 -19 -35 -19 -1242 -19 -1132 0 -1233 1 -1250 17 -15 14 -18 32 -18
129 0 89 3 116 16 128 14 14 141 16 1249 16 1210 0 1234 0 1245 -19z m-5272
-897 c21 -14 22 -23 22 -130 0 -101 -2 -116 -20 -134 -20 -20 -33 -20 -673
-20 -574 0 -655 2 -675 16 -21 14 -22 23 -22 131 0 94 3 120 17 135 15 17 49
18 672 18 578 0 659 -2 679 -16z m-384 -476 c12 -17 16 -49 16 -130 0 -95 -2
-110 -20 -128 -20 -20 -33 -20 -620 -20 -587 0 -600 0 -620 20 -18 18 -20 33
-20 132 0 90 3 115 17 130 15 17 48 18 624 18 l608 0 15 -22z m962 8 c16 -12
19 -29 22 -123 3 -97 1 -111 -16 -133 l-20 -25 -369 -3 c-284 -2 -374 1 -393
11 -24 12 -25 16 -28 131 -2 100 0 122 14 137 16 18 39 19 394 19 309 0 380
-3 396 -14z m-1422 -458 c12 -17 16 -48 16 -125 0 -159 76 -143 -668 -143
-527 0 -631 2 -648 14 -17 13 -19 27 -19 129 0 82 4 119 14 130 12 16 70 17
652 17 l638 0 15 -22z m4607 -1567 l24 -19 0 -894 c0 -993 2 -960 -68 -1077
-111 -185 -362 -270 -617 -209 -118 28 -244 115 -296 205 -61 103 -67 141 -72
473 -6 460 10 548 122 667 65 70 112 102 202 135 50 18 80 22 194 22 147 0
196 -11 324 -75 33 -16 61 -29 63 -29 1 0 3 177 3 394 l0 395 22 15 c30 21 71
20 99 -3z m-5250 -103 c5 -7 9 -24 9 -37 0 -13 -63 -184 -141 -380 -78 -196
-256 -646 -396 -1001 -140 -355 -261 -655 -269 -667 -11 -18 -24 -23 -59 -23
-48 0 -75 19 -75 52 0 12 40 123 89 247 49 124 227 577 396 1006 233 594 312
786 332 804 22 19 34 22 66 18 22 -3 44 -11 48 -19z m903 12 c21 -7 26 -16 26
-42 0 -31 -775 -2008 -806 -2055 -29 -46 -134 -22 -134 29 0 11 45 135 101
276 55 142 233 595 396 1007 214 546 301 756 319 773 27 24 58 28 98 12z m931
-612 c173 -38 313 -180 350 -355 30 -141 17 -183 -58 -183 -63 0 -70 9 -78 93
-13 135 -65 214 -178 272 -145 73 -372 44 -474 -61 -92 -93 -99 -138 -95 -549
l3 -330 26 -55 c33 -70 84 -121 152 -154 177 -83 421 -35 512 102 30 45 55
124 55 173 0 81 84 121 130 62 19 -24 21 -36 15 -86 -16 -147 -76 -258 -182
-339 -130 -98 -319 -130 -503 -86 -120 29 -254 132 -304 233 -49 101 -56 160
-56 515 0 352 7 412 54 513 45 94 161 188 279 226 91 30 241 34 352 9z m1535
1 c118 -26 254 -128 305 -229 51 -101 55 -136 55 -520 0 -283 -3 -367 -15
-413 -61 -234 -275 -373 -545 -354 -234 17 -398 133 -462 327 -19 59 -22 93
-26 375 -6 428 9 525 96 640 120 158 351 226 592 174z m3094 -5 c176 -45 304
-180 337 -358 6 -32 9 -129 7 -217 -3 -158 -3 -159 -31 -186 l-27 -28 -373 -3
c-370 -3 -372 -3 -389 19 -24 29 -23 84 2 109 19 19 33 20 350 20 l330 0 0 78
c-1 175 -33 276 -110 346 -172 155 -508 108 -606 -85 -35 -71 -44 -154 -44
-444 0 -283 8 -362 45 -435 103 -204 461 -239 628 -61 47 50 71 108 82 204 8
57 33 87 75 87 68 0 88 -76 55 -205 -44 -167 -154 -278 -330 -331 -90 -27
-268 -25 -361 4 -138 43 -257 149 -303 270 -34 88 -44 228 -38 547 5 313 12
366 63 453 115 196 372 283 638 216z m1353 -1 c17 -22 16 -74 -1 -98 -10 -13
-32 -21 -83 -26 -134 -14 -228 -62 -285 -145 -51 -74 -51 -82 -55 -659 -5
-602 -1 -575 -73 -575 -75 0 -71 -32 -68 606 3 565 3 569 26 625 53 131 143
218 269 260 121 40 246 46 270 12z m-5963 -2217 c44 -13 116 -54 116 -66 0 -3
-11 -18 -24 -35 -23 -28 -25 -29 -43 -13 -82 74 -240 58 -295 -30 -29 -47 -30
-124 -2 -172 50 -87 197 -112 285 -50 36 27 44 25 59 -10 15 -37 4 -48 -78
-80 -180 -69 -362 40 -363 217 -1 71 20 125 64 171 72 75 174 100 281 68z
m912 -221 c57 -126 104 -236 104 -243 0 -9 -12 -12 -37 -10 -35 3 -40 7 -65
61 l-28 57 -122 0 -123 0 -30 -58 c-28 -53 -33 -57 -65 -57 -19 0 -34 5 -33
10 1 10 200 452 210 468 3 4 23 7 45 5 l40 -3 104 -230z m836 225 c21 -6 51
-27 72 -50 32 -36 36 -46 36 -97 0 -55 -2 -58 -47 -102 l-48 -46 58 -85 c31
-46 57 -88 57 -93 0 -4 -19 -7 -42 -5 -41 3 -45 6 -103 90 l-60 88 -72 0 -72
0 -3 -87 -3 -88 -35 0 -35 0 -3 230 c-1 126 0 235 2 242 7 16 242 18 298 3z
m888 -1 c64 -14 126 -61 157 -119 21 -39 24 -56 21 -126 -2 -68 -7 -87 -31
-122 -57 -87 -145 -116 -339 -110 l-93 3 -3 243 -2 242 119 0 c66 0 143 -5
171 -11z m928 -4 c41 -18 82 -52 82 -70 0 -7 -9 -20 -21 -31 -16 -15 -23 -16
-37 -6 -62 45 -80 52 -130 52 -72 0 -112 -21 -112 -60 0 -40 25 -55 137 -79
114 -25 149 -43 170 -85 34 -72 -19 -162 -110 -187 -96 -26 -229 4 -284 63
l-21 23 23 30 24 29 28 -26 c38 -36 93 -58 147 -58 58 0 91 13 111 44 33 50 0
71 -167 105 -74 16 -120 47 -135 93 -22 66 9 125 82 159 51 23 161 25 213 4z
m2160 -1267 c8 -8 12 -53 12 -135 0 -111 -2 -123 -19 -133 -13 -6 -235 -10
-650 -10 l-630 0 -15 22 c-23 33 -23 224 1 250 15 17 49 18 653 18 481 0 639
-3 648 -12z m-1934 -447 c14 -15 16 -37 14 -137 -3 -115 -4 -119 -28 -131 -34
-17 -727 -19 -764 -1 -32 14 -39 48 -35 168 3 77 7 94 23 106 16 11 87 14 396
14 355 0 378 -1 394 -19z m1420 -3 c12 -17 16 -49 16 -130 0 -95 -2 -110 -20
-128 -20 -20 -33 -20 -620 -20 -587 0 -600 0 -620 20 -18 18 -20 33 -20 128 0
81 4 113 16 130 l15 22 609 0 609 0 15 -22z m-280 -464 c13 -12 16 -39 16
-133 0 -78 -4 -121 -12 -129 -9 -9 -175 -12 -685 -12 -654 0 -673 1 -683 19
-5 11 -10 68 -10 127 0 86 3 111 17 126 15 17 49 18 679 18 589 0 664 -2 678
-16z m-4134 -904 c18 -18 20 -33 20 -132 0 -90 -3 -115 -17 -130 -15 -17 -67
-18 -1244 -18 -1103 0 -1229 2 -1243 16 -13 12 -16 40 -16 134 0 111 1 120 22
134 20 14 154 16 1240 16 1205 0 1218 0 1238 -20z m2992 3 c16 -14 18 -33 18
-139 0 -112 -2 -124 -19 -134 -13 -7 -457 -10 -1365 -10 -1209 0 -1346 2
-1360 16 -24 23 -23 240 1 266 15 17 71 18 1361 18 1238 0 1347 -1 1364 -17z
m2786 1 c21 -14 22 -23 22 -134 0 -94 -3 -122 -16 -134 -14 -14 -146 -16
-1304 -16 l-1289 0 -15 22 c-12 17 -16 49 -16 130 0 95 2 110 20 128 20 20 33
20 1298 20 1140 0 1280 -2 1300 -16z m-836 -431 c15 -14 18 -32 18 -129 0 -89
-3 -116 -16 -128 -14 -14 -87 -16 -653 -16 -482 0 -640 3 -649 12 -8 8 -12 51
-12 129 0 94 3 121 16 133 14 14 86 16 646 16 574 0 633 -2 650 -17z m-810
-480 c15 -14 18 -32 18 -134 0 -94 -3 -121 -16 -133 -14 -14 -89 -16 -676 -16
-601 0 -663 2 -680 17 -15 14 -18 32 -18 131 0 93 3 119 17 134 15 17 49 18
676 18 601 0 662 -2 679 -17z m-2138 -495 c12 -17 16 -49 16 -130 0 -158 21
-148 -300 -148 -321 0 -300 -10 -300 148 0 164 -24 152 300 152 267 0 269 0
284 -22z m2468 5 c15 -14 18 -32 18 -133 0 -77 -4 -120 -12 -128 -17 -17
-2269 -17 -2286 0 -8 8 -12 51 -12 127 0 92 3 118 17 133 15 17 64 18 1136 18
1029 0 1122 -1 1139 -17z m460 -500 c16 -14 18 -33 18 -139 0 -112 -2 -124
-19 -134 -13 -7 -326 -10 -945 -10 -827 0 -926 2 -940 16 -24 23 -23 240 1
266 15 17 58 18 941 18 847 0 927 -1 944 -17z m878 -953 c18 -18 20 -33 20
-134 0 -91 -3 -118 -16 -130 -14 -14 -94 -16 -729 -16 l-714 0 -15 22 c-12 17
-16 48 -16 124 0 87 3 105 21 128 l20 26 705 0 c691 0 704 0 724 -20z m-1642
-15 c7 -14 12 -70 12 -123 0 -151 17 -142 -265 -142 -199 0 -236 2 -249 16
-13 12 -16 39 -16 133 0 78 4 121 12 129 9 9 79 12 253 12 l242 0 11 -25z
m1620 -411 c21 -14 22 -23 22 -131 0 -94 -3 -120 -17 -135 -15 -17 -96 -18
-2176 -18 -1996 0 -2162 1 -2179 17 -15 14 -18 32 -18 134 0 110 1 119 22 133
20 14 245 16 2173 16 1928 0 2153 -2 2173 -16z m-7666 -441 c15 -14 18 -32 18
-134 0 -110 -1 -119 -22 -133 -20 -14 -137 -16 -1058 -16 -921 0 -1038 2
-1058 16 -21 14 -22 23 -22 131 0 94 3 120 17 135 15 17 61 18 1061 18 959 0
1047 -1 1064 -17z m4578 -3 c18 -18 20 -33 20 -128 0 -78 -4 -114 -14 -128
-14 -19 -49 -19 -2172 -22 -1922 -2 -2160 0 -2181 13 -22 15 -23 21 -23 132 0
94 3 120 17 135 15 17 96 18 2175 18 2145 0 2158 0 2178 -20z m854 4 c24 -23
23 -240 -1 -266 -15 -17 -37 -18 -272 -18 -216 0 -260 2 -279 16 -21 14 -22
23 -22 131 0 94 3 120 17 135 15 17 37 18 279 18 225 0 265 -2 278 -16z"/>
<path d="M8325 10586 c-109 -27 -195 -89 -235 -171 -30 -63 -40 -161 -39 -425
0 -281 8 -370 43 -437 121 -238 552 -239 672 -2 37 74 44 155 44 545 0 414 12
367 -110 433 -123 66 -256 86 -375 57z"/>
<path d="M6772 10594 c-71 -19 -106 -38 -159 -87 -94 -86 -103 -133 -103 -520
0 -328 6 -380 54 -461 57 -97 206 -162 351 -154 101 6 180 36 242 92 98 88
113 156 112 521 0 358 -12 429 -92 513 -92 97 -257 136 -405 96z"/>
<path d="M6252 8336 c-23 -52 -42 -97 -42 -100 0 -3 38 -6 85 -6 47 0 85 4 85
10 0 11 -70 172 -79 183 -4 4 -26 -35 -49 -87z"/>
<path d="M7060 8375 l0 -75 103 0 c95 0 105 2 125 23 31 33 29 80 -4 106 -23
18 -41 21 -125 21 l-99 0 0 -75z"/>
<path d="M7950 8285 l0 -165 98 0 c166 0 227 49 220 177 -7 116 -58 153 -215
153 l-103 0 0 -165z"/>
</g>
</svg>
